# xmcd CD database file
#
# Track frame offsets:
#	150
#	16662
#	63462
#	78217
#	137565
#	158245
#	191172
#
# Disc length: 2837 seconds
#
# Revision: 0
# Processed by: cddbd v1.5.2PL0 Copyright (c) Steve Scherf et al.
# Submitted via: CDex 1.51
#
DISCID=500b1307
DTITLE=Adam Rudolph and Wadada Leo Smith - Compassion
DYEAR=2006
DGENRE=Jazz
TTITLE0=Beauty: Aquamarine Night
TTITLE1=Sun Ray Colors and Rainbow Images
TTITLE2=Fragrance of Light
TTITLE3=Love Rhythms, Heart Songs
TTITLE4=Song of Humanity
TTITLE5=Silver Dream Circle
TTITLE6=The Caller and the Called
EXTD=YEAR: 2006
EXTT0=
EXTT1=
EXTT2=
EXTT3=
EXTT4=
EXTT5=
EXTT6=
PLAYORDER=
